<svg width="67" height="86" viewBox="0 0 67 86" fill="none" xmlns="http://www.w3.org/2000/svg">
<path d="M2.5498 0.478516H63.5469C64.6908 0.478722 65.6182 1.40586 65.6182 2.5498V82.9863C65.6182 84.1303 64.6908 85.0574 63.5469 85.0576H2.5498C1.40573 85.0576 0.478516 84.1304 0.478516 82.9863V2.5498C0.478516 1.40573 1.40574 0.478516 2.5498 0.478516Z" fill="white"/>
<path d="M2.5498 0.478516H63.5469C64.6908 0.478722 65.6182 1.40586 65.6182 2.5498V82.9863C65.6182 84.1303 64.6908 85.0574 63.5469 85.0576H2.5498C1.40573 85.0576 0.478516 84.1304 0.478516 82.9863V2.5498C0.478516 1.40573 1.40574 0.478516 2.5498 0.478516Z" stroke="#78716C" stroke-width="0.956087"/>
<path d="M15.979 10.9006C15.979 10.3719 16.4076 9.94336 16.9362 9.94336H49.4814C50.0101 9.94336 50.4386 10.3719 50.4386 10.9006V10.9006C50.4386 11.4292 50.0101 11.8578 49.4814 11.8578H16.9362C16.4076 11.8578 15.979 11.4292 15.979 10.9006V10.9006Z" fill="#A8A29E"/>
<rect x="12.3096" y="16.3239" width="19.1442" height="0.796739" rx="0.398369" fill="#A8A29E"/>
<rect x="12.3096" y="20.6899" width="19.1442" height="0.796739" rx="0.398369" fill="#A8A29E"/>
<rect x="12.3096" y="25.0562" width="19.1442" height="0.796739" rx="0.398369" fill="#A8A29E"/>
<rect x="12.3096" y="29.4222" width="19.1442" height="0.796739" rx="0.398369" fill="#A8A29E"/>
<rect x="12.3096" y="33.7883" width="19.1442" height="0.796739" rx="0.398369" fill="#A8A29E"/>
<rect x="34.7253" y="16.3239" width="19.1442" height="0.796739" rx="0.398369" fill="#A8A29E"/>
<rect x="34.7253" y="20.6899" width="16.5977" height="0.796739" rx="0.398369" fill="#A8A29E"/>
<rect x="34.7253" y="25.0562" width="12.7733" height="0.796739" rx="0.398369" fill="#A8A29E"/>
<rect x="34.7253" y="29.4222" width="15.2974" height="0.796739" rx="0.398369" fill="#A8A29E"/>
<rect x="12.3096" y="59.0293" width="19.1442" height="0.796739" rx="0.398369" fill="#A8A29E"/>
<rect x="12.3096" y="63.3954" width="19.1442" height="0.796739" rx="0.398369" fill="#A8A29E"/>
<rect x="12.3096" y="67.7616" width="19.1442" height="0.796739" rx="0.398369" fill="#A8A29E"/>
<rect x="12.3096" y="72.1277" width="19.1442" height="0.796739" rx="0.398369" fill="#A8A29E"/>
<rect x="12.3096" y="76.4938" width="19.1442" height="0.796739" rx="0.398369" fill="#A8A29E"/>
<rect x="34.7253" y="59.0293" width="19.1442" height="0.796739" rx="0.398369" fill="#A8A29E"/>
<rect x="34.7253" y="63.3955" width="19.1442" height="0.796739" rx="0.398369" fill="#A8A29E"/>
<rect x="34.7253" y="67.7616" width="19.1442" height="0.796739" rx="0.398369" fill="#A8A29E"/>
<rect x="34.7253" y="72.1278" width="19.1442" height="0.796739" rx="0.398369" fill="#A8A29E"/>
<rect x="34.7253" y="76.4939" width="19.1442" height="0.796739" rx="0.398369" fill="#A8A29E"/>
<rect x="12.6358" y="37.9248" width="40.8267" height="16.8653" rx="0.637391" fill="white"/>
<rect x="12.6358" y="37.9248" width="40.8267" height="16.8653" rx="0.637391" stroke="#A8A29E" stroke-width="0.637391"/>
<line x1="14.328" y1="42.739" x2="51.879" y2="42.739" stroke="#A8A29E" stroke-width="0.0319883" stroke-linecap="square" stroke-dasharray="0.06 0.06"/>
<rect x="14.4702" y="47.795" width="1.28189" height="4.28938" fill="#A8A29E"/>
<rect x="16.0403" y="47.2034" width="1.28189" height="4.88102" fill="#A8A29E"/>
<rect x="17.6104" y="45.9215" width="1.28189" height="6.16291" fill="#A8A29E"/>
<rect x="19.1804" y="44.2946" width="1.28189" height="7.78992" fill="#A8A29E"/>
<rect x="20.7505" y="47.2034" width="1.28189" height="4.88102" fill="#A8A29E"/>
<rect x="22.3206" y="47.7458" width="1.28189" height="4.33869" fill="#A8A29E"/>
<rect x="23.8904" y="40.4489" width="1.28189" height="11.6356" fill="#A8A29E"/>
<rect x="25.4604" y="44.7875" width="1.28189" height="7.29689" fill="#A8A29E"/>
<rect x="27.0305" y="45.6749" width="1.28189" height="6.40943" fill="#A8A29E"/>
<rect x="28.6006" y="44.1959" width="1.28189" height="7.88852" fill="#A8A29E"/>
<rect x="30.1707" y="45.8722" width="1.28189" height="6.21221" fill="#A8A29E"/>
<rect x="31.7407" y="47.7458" width="1.28189" height="4.33869" fill="#A8A29E"/>
<rect x="33.3108" y="47.7457" width="1.28189" height="4.33869" fill="#A8A29E"/>
<rect x="34.8809" y="45.1326" width="1.28189" height="6.95176" fill="#A8A29E"/>
<rect x="36.4509" y="43.4563" width="1.28189" height="8.62807" fill="#A8A29E"/>
<rect x="38.021" y="46.661" width="1.28189" height="5.42336" fill="#A8A29E"/>
<rect x="39.5911" y="44.196" width="1.28189" height="7.88852" fill="#A8A29E"/>
<rect x="41.1611" y="46.2666" width="1.28189" height="5.81779" fill="#A8A29E"/>
<rect x="42.7312" y="43.4563" width="1.23258" height="8.62807" fill="#A8A29E"/>
<rect x="44.252" y="46.661" width="1.42979" height="5.42336" fill="#A8A29E"/>
<rect x="45.97" y="44.7875" width="1.28189" height="7.29689" fill="#A8A29E"/>
<rect x="47.5398" y="42.7168" width="1.28189" height="9.36762" fill="#A8A29E"/>
<rect x="49.1099" y="43.4563" width="1.28189" height="8.62807" fill="#A8A29E"/>
<rect x="50.6802" y="45.1326" width="1.23258" height="6.95176" fill="#A8A29E"/>
<circle cx="32.3096" cy="40.3239" r="20" fill="#1B8364"/>
<path d="M27.249 38.2639V34.063C27.2477 32.7608 27.7303 31.5046 28.6031 30.5381C29.4759 29.5717 30.6767 28.9641 31.9724 28.8332C33.268 28.7024 34.566 29.0576 35.6145 29.8299C36.663 30.6023 37.387 31.7366 37.6462 33.0128M25.1485 38.2639H39.8516C41.0117 38.2639 41.9521 39.2043 41.9521 40.3644V47.7159C41.9521 48.876 41.0117 49.8164 39.8516 49.8164H25.1485C23.9885 49.8164 23.0481 48.876 23.0481 47.7159V40.3644C23.0481 39.2043 23.9885 38.2639 25.1485 38.2639Z" stroke="white" stroke-width="1.57533" stroke-linecap="round" stroke-linejoin="round"/>
</svg>
