<svg width="42" height="64" viewBox="0 0 42 64" fill="none" xmlns="http://www.w3.org/2000/svg">
	<path d="M37.54 17.5773L37.54 33.954H30.9011V17.5773C30.9011 12.097 26.4422 7.63872 20.9627 7.63872C15.4831 7.63872 11.0246 12.097 11.0246 17.5773V33.954L4.3856 33.954V17.5773C4.3856 8.43675 11.8224 1 20.9627 1C30.1028 1 37.54 8.43675 37.54 17.5773Z" fill="#848484" />
	<path d="M15.4591 43.5118C15.4591 46.5361 17.9111 48.988 20.9361 48.988C23.9609 48.988 26.4131 46.5361 26.4131 43.5118C26.4131 40.4858 23.9609 38.0336 20.9361 38.0336C17.9111 38.0336 15.4591 40.4858 15.4591 43.5118Z" fill="#848484" />
	<path d="M33.9091 43.4526C33.9091 36.3345 28.1179 30.5438 21 30.5438C13.8824 30.5438 8.0919 36.3345 8.0919 43.4526C8.0919 50.57 13.8824 56.3618 21 56.3618C28.1179 56.3618 33.9091 50.57 33.9091 43.4526ZM40.5478 43.4526C40.5478 54.23 31.7779 63 21 63C10.2219 63 1.45266 54.23 1.45266 43.4526C1.45266 32.6737 10.2219 23.9048 21 23.9048C31.7779 23.9048 40.5478 32.6737 40.5478 43.4526Z" fill="#848484" />
</svg>
