<svg width="42" height="64" viewBox="0 0 42 64" fill="none" xmlns="http://www.w3.org/2000/svg">
	<path d="M7.64941 19.7184V17.4336C7.64941 10.0416 13.6462 4.0448 21.0446 4.0448C28.4366 4.0448 34.427 10.0416 34.4334 17.4336V33.9712" stroke="#F68212" stroke-width="6.74431" />
	<path d="M20.9988 59.9551C30.051 59.9551 37.3892 52.6169 37.3892 43.5647C37.3892 34.5125 30.051 27.1743 20.9988 27.1743C11.9466 27.1743 4.6084 34.5125 4.6084 43.5647C4.6084 52.6169 11.9466 59.9551 20.9988 59.9551Z" stroke="#F68212" stroke-width="6.74431" />
	<path d="M21.0638 49.1584C24.1177 49.1584 26.5934 46.6828 26.5934 43.6288C26.5934 40.5749 24.1177 38.0992 21.0638 38.0992C18.0099 38.0992 15.5342 40.5749 15.5342 43.6288C15.5342 46.6828 18.0099 49.1584 21.0638 49.1584Z" fill="#F68212" />
</svg>
