<svg width="109" height="138" viewBox="0 0 109 138" fill="none" xmlns="http://www.w3.org/2000/svg">
<g clip-path="url(#clip0_1470_4085)">
<path d="M19.798 2.05723C20.0579 1.3412 20.849 0.971423 21.565 1.23131L60.9853 15.5392C61.7013 15.7991 62.0711 16.5902 61.8112 17.3063L43.0183 69.0834C42.7584 69.7994 41.9673 70.1692 41.2512 69.9093L1.83097 55.6014C1.11495 55.3415 0.745171 54.5504 1.00506 53.8343L19.798 2.05723Z" fill="white"/>
<rect x="28.1309" y="10.7676" width="23.302" height="1.29456" rx="0.34481" transform="rotate(19.9488 28.1309 10.7676)" fill="#094E94"/>
<rect x="36.9033" y="23.5923" width="12.0825" height="0.517215" rx="0.258608" transform="rotate(19.9488 36.9033 23.5923)" fill="#094E94"/>
<rect x="37.7871" y="21.1587" width="12.0825" height="0.517215" rx="0.258608" transform="rotate(19.9488 37.7871 21.1587)" fill="#094E94"/>
<rect x="38.6699" y="18.7246" width="12.0825" height="0.517215" rx="0.258608" transform="rotate(19.9488 38.6699 18.7246)" fill="#094E94"/>
<rect x="36.0205" y="26.0259" width="6.14915" height="0.517215" rx="0.258608" transform="rotate(19.9488 36.0205 26.0259)" fill="#094E94"/>
<rect x="24.4736" y="13.5718" width="12.9456" height="0.517215" rx="0.133358" transform="rotate(19.9488 24.4736 13.5718)" fill="#094E94"/>
<rect x="23.4736" y="16.3267" width="12.9456" height="0.517215" rx="0.133358" transform="rotate(19.9488 23.4736 16.3267)" fill="#094E94"/>
<rect x="22.4736" y="19.082" width="12.9456" height="0.517215" rx="0.133358" transform="rotate(19.9488 22.4736 19.082)" fill="#094E94"/>
<rect x="21.4736" y="21.8369" width="12.9456" height="0.517215" rx="0.133358" transform="rotate(19.9488 21.4736 21.8369)" fill="#094E94"/>
<rect x="20.4736" y="24.5918" width="12.9456" height="0.517215" rx="0.133358" transform="rotate(19.9488 20.4736 24.5918)" fill="#094E94"/>
<rect x="14.4736" y="41.1221" width="12.9456" height="0.517215" rx="0.133358" transform="rotate(19.9488 14.4736 41.1221)" fill="#094E94"/>
<rect x="13.4736" y="43.877" width="12.9456" height="0.517215" rx="0.133358" transform="rotate(19.9488 13.4736 43.877)" fill="#094E94"/>
<rect x="12.4736" y="46.6323" width="12.9456" height="0.517215" rx="0.133358" transform="rotate(19.9488 12.4736 46.6323)" fill="#094E94"/>
<rect x="11.4736" y="49.3872" width="12.9456" height="0.517215" rx="0.133358" transform="rotate(19.9488 11.4736 49.3872)" fill="#094E94"/>
<rect x="10.4736" y="52.1421" width="12.9456" height="0.517215" rx="0.133358" transform="rotate(19.9488 10.4736 52.1421)" fill="#094E94"/>
<rect x="28.6904" y="46.2817" width="12.9456" height="0.517215" rx="0.133358" transform="rotate(19.9488 28.6904 46.2817)" fill="#094E94"/>
<rect x="27.6904" y="49.0366" width="12.9456" height="0.517215" rx="0.133358" transform="rotate(19.9488 27.6904 49.0366)" fill="#094E94"/>
<rect x="26.6904" y="51.792" width="12.9456" height="0.517215" rx="0.133358" transform="rotate(19.9488 26.6904 51.792)" fill="#094E94"/>
<rect x="25.6904" y="54.5469" width="12.9456" height="0.517215" rx="0.133358" transform="rotate(19.9488 25.6904 54.5469)" fill="#094E94"/>
<rect x="24.6904" y="57.3018" width="12.9456" height="0.517215" rx="0.133358" transform="rotate(19.9488 24.6904 57.3018)" fill="#094E94"/>
<g clip-path="url(#clip1_1470_4085)">
<rect x="19.5684" y="27.1011" width="28.0385" height="11.8355" rx="0.34481" transform="rotate(19.9488 19.5684 27.1011)" fill="white"/>
<line x1="17.6291" y1="36.4237" x2="41.498" y2="45.0871" stroke="#D3D6DF" stroke-width="0.0216309" stroke-linecap="square" stroke-dasharray="0.04 0.04"/>
<rect x="18.585" y="34.0737" width="0.866827" height="2.90054" transform="rotate(19.9488 18.585 34.0737)" fill="#6DBAFF"/>
<rect x="19.7197" y="34.0601" width="0.866827" height="3.30061" transform="rotate(19.9488 19.7197 34.0601)" fill="#6DBAFF"/>
<rect x="21.0137" y="33.6074" width="0.866827" height="4.16744" transform="rotate(19.9488 21.0137 33.6074)" fill="#6DBAFF"/>
<rect x="22.3867" y="32.9355" width="0.866827" height="5.26764" transform="rotate(19.9488 22.3867 32.9355)" fill="#6DBAFF"/>
<rect x="22.7139" y="35.1465" width="0.866827" height="3.30061" transform="rotate(19.9488 22.7139 35.1465)" fill="#6DBAFF"/>
<rect x="23.5869" y="35.8535" width="0.866827" height="2.93388" transform="rotate(19.9488 23.5869 35.8535)" fill="#6DBAFF"/>
<rect x="26.2686" y="31.5776" width="0.866827" height="7.86813" transform="rotate(19.9488 26.2686 31.5776)" fill="#6DBAFF"/>
<rect x="26.2656" y="34.6978" width="0.866827" height="4.93425" transform="rotate(19.9488 26.2656 34.6978)" fill="#6DBAFF"/>
<rect x="27.0586" y="35.624" width="0.866827" height="4.33414" transform="rotate(19.9488 27.0586 35.624)" fill="#6DBAFF"/>
<rect x="28.3975" y="35.0459" width="0.866827" height="5.33432" transform="rotate(19.9488 28.3975 35.0459)" fill="#6DBAFF"/>
<rect x="29.0088" y="36.4741" width="0.866827" height="4.20078" transform="rotate(19.9488 29.0088 36.4741)" fill="#6DBAFF"/>
<rect x="29.5742" y="38.0269" width="0.866827" height="2.93388" transform="rotate(19.9488 29.5742 38.0269)" fill="#6DBAFF"/>
<rect x="30.5723" y="38.3892" width="0.866827" height="2.93388" transform="rotate(19.9488 30.5723 38.3892)" fill="#6DBAFF"/>
<rect x="32.1738" y="37.0903" width="0.866827" height="4.70087" transform="rotate(19.9488 32.1738 37.0903)" fill="#6DBAFF"/>
<rect x="33.5586" y="36.3872" width="0.866827" height="5.83441" transform="rotate(19.9488 33.5586 36.3872)" fill="#6DBAFF"/>
<rect x="33.8164" y="38.7866" width="0.866827" height="3.66735" transform="rotate(19.9488 33.8164 38.7866)" fill="#6DBAFF"/>
<rect x="35.3838" y="37.5815" width="0.866827" height="5.33432" transform="rotate(19.9488 35.3838 37.5815)" fill="#6DBAFF"/>
<rect x="35.9033" y="39.2603" width="0.866827" height="3.93406" transform="rotate(19.9488 35.9033 39.2603)" fill="#6DBAFF"/>
<rect x="37.5498" y="37.8359" width="0.833488" height="5.83441" transform="rotate(19.9488 37.5498 37.8359)" fill="#6DBAFF"/>
<rect x="37.7773" y="40.2241" width="0.966846" height="3.66735" transform="rotate(19.9488 37.7773 40.2241)" fill="#6DBAFF"/>
<rect x="39.3018" y="39.4292" width="0.866827" height="4.93425" transform="rotate(19.9488 39.3018 39.4292)" fill="#6DBAFF"/>
<rect x="40.7773" y="38.4756" width="0.866827" height="6.33451" transform="rotate(19.9488 40.7773 38.4756)" fill="#6DBAFF"/>
<rect x="41.6045" y="39.3076" width="0.866827" height="5.83441" transform="rotate(19.9488 41.6045 39.3076)" fill="#6DBAFF"/>
<rect x="42.2158" y="40.7354" width="0.833488" height="4.70087" transform="rotate(19.9488 42.2158 40.7354)" fill="#6DBAFF"/>
</g>
<rect x="19.6716" y="27.322" width="27.6937" height="11.4907" rx="0.172405" transform="rotate(19.9488 19.6716 27.322)" stroke="#0D4D90" stroke-width="0.34481"/>
</g>
<path d="M19.96 2.11605C20.1874 1.48952 20.8797 1.16597 21.5062 1.39337L60.9265 15.7013C61.553 15.9287 61.8766 16.6209 61.6492 17.2475L42.8562 69.0246C42.6288 69.6511 41.9366 69.9746 41.3101 69.7472L1.88979 55.4393C1.26327 55.2119 0.939717 54.5197 1.16712 53.8931L19.96 2.11605Z" stroke="#3C6283" stroke-width="0.34481"/>
<path fill-rule="evenodd" clip-rule="evenodd" d="M107.777 78.763C95.0018 73.2206 82.2259 67.678 69.3139 62.0747C68.3574 61.6558 67.4107 61.2466 66.4725 60.841L66.4724 60.841C64.2176 59.8664 62.0113 58.9127 59.8342 57.8964C58.5488 57.2963 57.452 57.3177 56.1389 57.8594C43.8837 62.9145 31.6164 67.9403 19.3491 72.966L19.3442 72.968L19.3166 72.9793L19.3103 72.9819L19.304 72.9845C14.9928 74.7507 10.6816 76.5169 6.37092 78.2844C6.09334 78.3983 5.82577 78.5365 5.4619 78.7244L5.46184 78.7244L5.46164 78.7246C5.25778 78.8299 5.0237 78.9508 4.74071 79.0917H107.814L107.896 78.8145L107.777 78.763ZM58.1849 122.633C59.9026 118.188 61.6715 113.611 63.5095 108.896C63.9039 107.867 64.2291 106.975 64.66 105.792V125.408H71.032V95.3293C70.5334 95.3293 70.0467 95.3453 69.5697 95.361H69.5696H69.5695H69.5693H69.5692C68.5374 95.3949 67.5508 95.4273 66.5875 95.2932C64.2472 94.9674 63.1628 95.7967 62.4346 98.1199C61.2649 101.851 59.9082 105.524 58.5177 109.288L58.5173 109.289C57.9442 110.84 57.3653 112.407 56.7915 114C56.6664 113.677 56.5527 113.387 56.4474 113.118C56.243 112.597 56.0705 112.157 55.9083 111.714C55.4183 110.373 54.9297 109.032 54.4412 107.69L54.4411 107.69L54.4409 107.689C53.1148 104.049 51.7887 100.408 50.4331 96.7777C50.2318 96.2386 49.7403 95.4242 49.3477 95.4031C47.5511 95.3066 45.7486 95.3189 43.983 95.331H43.9827H43.9823H43.9819H43.9815C43.3983 95.335 42.8191 95.339 42.2454 95.339V125.439H48.6877V106.449C48.8011 106.651 48.9058 106.825 49.0005 106.982C49.1782 107.278 49.3204 107.514 49.4179 107.767C49.828 108.833 50.2426 109.898 50.6573 110.962C51.8822 114.107 53.1072 117.251 54.2155 120.436C54.9062 122.422 55.8717 123.422 58.1849 122.633ZM108.338 82.5304C108.466 84.093 108.466 85.5275 108.466 87.0976H4.46582V82.4352C4.64533 82.4215 4.81934 82.4048 4.98963 82.3884H4.98965H4.98966C5.34339 82.3543 5.68109 82.3218 6.0188 82.3218C39.6258 82.3165 73.2328 82.3167 106.84 82.3206C107.297 82.3206 107.754 82.3739 108.338 82.5304ZM108.443 132.463L67.6253 132.463L4.4682 132.463V137.24H108.443V132.463ZM22.3831 118.158L22.3831 125.456H15.7714V95.1455C17.3203 95.2084 18.8689 95.2398 20.4147 95.2711H20.4149C23.9205 95.3422 27.4115 95.413 30.8561 95.8497C36.0948 96.5138 38.5883 100.108 38.4712 105.593C38.3665 110.497 34.9749 114.246 29.8235 114.943C28.1972 115.163 26.5526 115.249 24.8359 115.338H24.8359C24.0358 115.379 23.22 115.421 22.3831 115.479L22.3831 118.158ZM31.3779 103.447C30.0393 100.96 27.0308 100.138 22.5147 101.032V109.849C22.9356 109.849 23.3426 109.85 23.74 109.852H23.7405H23.7407C24.5789 109.855 25.3749 109.858 26.1708 109.846C30.3458 109.787 31.9447 107.932 31.3779 103.447ZM99.089 121.483C98.6729 121.004 98.247 120.514 97.7258 119.922C96.8911 119.037 96.1519 118.256 95.4175 117.479C90.6277 122.072 84.6322 120.218 83.2156 115.02C82.5652 112.633 82.4328 109.905 82.8528 107.467C83.9271 101.231 90.1072 98.6105 94.7288 102.816C94.7752 102.858 94.8577 102.861 94.9659 102.864C95.0254 102.866 95.0928 102.868 95.1663 102.877L98.7499 98.7947C94.4556 94.6314 89.6029 93.7808 84.3201 95.9005C78.9242 98.0655 76.2335 102.472 75.5915 108.034C74.8889 114.122 75.988 119.775 81.3722 123.622C87.0675 127.692 95.4159 126.627 99.0906 121.485L99.089 121.483Z" fill="#1C5896"/>
<defs>
<clipPath id="clip0_1470_4085">
<path d="M19.798 2.05723C20.0579 1.3412 20.849 0.971423 21.565 1.23131L60.9853 15.5392C61.7013 15.7991 62.0711 16.5902 61.8112 17.3063L43.0183 69.0834C42.7584 69.7994 41.9673 70.1692 41.2512 69.9093L1.83097 55.6014C1.11495 55.3415 0.745171 54.5504 1.00506 53.8343L19.798 2.05723Z" fill="white"/>
</clipPath>
<clipPath id="clip1_1470_4085">
<rect x="19.5684" y="27.1011" width="28.0385" height="11.8355" rx="0.34481" transform="rotate(19.9488 19.5684 27.1011)" fill="white"/>
</clipPath>
</defs>
</svg>
