<svg width="31" height="23" viewBox="0 0 31 23" fill="none" xmlns="http://www.w3.org/2000/svg">
	<path fill-rule="evenodd" clip-rule="evenodd" d="M29.8473 6.20012C26.276 4.65076 22.7045 3.10133 19.0949 1.53493C18.8276 1.41783 18.5629 1.30344 18.3006 1.19005L18.3 1.18982L18.2999 1.18975C17.669 0.917042 17.0517 0.650201 16.4425 0.365837C16.0828 0.197932 15.776 0.203901 15.4085 0.355465C11.9795 1.76992 8.54707 3.17613 5.11465 4.58234C3.90413 5.07827 2.6936 5.5742 1.48323 6.07049C1.40556 6.10234 1.33069 6.14102 1.22886 6.19361L1.22883 6.19363L1.2288 6.19365L1.22871 6.1937C1.17169 6.22315 1.10622 6.25696 1.02709 6.29638H29.8674L29.8903 6.2188L29.8473 6.20012ZM15.981 18.4794C16.4617 17.2357 16.9566 15.9549 17.4709 14.6359C17.5812 14.3478 17.6722 14.0981 17.7928 13.7673V19.2559H19.5757V10.8397C19.4362 10.8397 19.3 10.8442 19.1665 10.8486L19.1664 10.8486C18.8777 10.8581 18.6017 10.8671 18.3321 10.8296C17.6773 10.7385 17.3739 10.9705 17.1701 11.6205C16.8429 12.6645 16.4633 13.6921 16.0742 14.7452L16.0742 14.7453L16.0741 14.7455L16.074 14.7458C15.9136 15.1798 15.7517 15.6182 15.5912 16.0639C15.5564 15.974 15.5247 15.8933 15.4954 15.8186L15.4952 15.8179L15.495 15.8174L15.4949 15.8172L15.4948 15.8171L15.4947 15.8169L15.4947 15.8167C15.4376 15.6711 15.3894 15.5482 15.344 15.4242C15.2069 15.0489 15.0702 14.6736 14.9335 14.2982L14.9334 14.2981L14.9334 14.2981L14.9334 14.298L14.9334 14.298C14.5624 13.2793 14.1913 12.2606 13.8121 11.245C13.7557 11.0941 13.6182 10.8663 13.5083 10.8604C13.0056 10.8334 12.5013 10.8368 12.0073 10.8402H12.0073H12.0072H12.0072H12.0071C11.8439 10.8413 11.6817 10.8424 11.5211 10.8424V19.2646H13.3237V13.951C13.3554 14.0076 13.3847 14.0563 13.4112 14.1003L13.4112 14.1003C13.4609 14.1829 13.5007 14.249 13.528 14.32C13.6427 14.6182 13.7588 14.9161 13.8748 15.2139L13.8748 15.214L13.8748 15.2141C14.2176 16.0938 14.5603 16.9736 14.8704 17.8648C15.0637 18.4202 15.3338 18.7001 15.981 18.4794ZM30.0141 7.25853C30.0499 7.69575 30.0499 8.09715 30.0499 8.53646H0.950195V7.23189C1.00041 7.22807 1.0491 7.22338 1.09674 7.2188L1.09676 7.2188L1.09678 7.21879C1.19575 7.20927 1.29024 7.20017 1.38473 7.20016C10.7881 7.1987 20.1915 7.19874 29.5949 7.19983C29.7227 7.19984 29.8506 7.21474 30.0141 7.25853ZM30.0434 21.2298L18.6225 21.2298L0.950845 21.2298V22.5664H30.0434V21.2298ZM5.96353 17.2272L5.96353 19.2693H4.11356V10.7883C4.54694 10.8059 4.98027 10.8147 5.41281 10.8235H5.41284C6.39374 10.8433 7.37051 10.8632 8.33431 10.9853C9.80013 11.1712 10.4978 12.1767 10.4651 13.7117C10.4358 15.0837 9.48678 16.1326 8.04539 16.3278C7.59033 16.3894 7.13015 16.4133 6.64982 16.4382L6.64948 16.4382C6.42571 16.4498 6.19757 16.4616 5.96353 16.4776L5.96353 17.2272ZM8.48032 13.1111C8.10577 12.4151 7.26397 12.1853 6.00036 12.4353V14.9024C6.11818 14.9024 6.2321 14.9028 6.34336 14.9032H6.34337C6.5779 14.904 6.80065 14.9048 7.02335 14.9017C8.19154 14.8852 8.6389 14.3662 8.48032 13.1111ZM27.4266 18.1581C27.3101 18.024 27.1908 17.8867 27.0448 17.7208C26.8116 17.4737 26.6051 17.2553 26.3999 17.0384L26.3989 17.0373C25.0587 18.3226 23.3811 17.8037 22.9847 16.3492C22.8028 15.6814 22.7657 14.9179 22.8832 14.2358C23.1838 12.491 24.913 11.7578 26.2062 12.9346C26.2192 12.9464 26.2423 12.9471 26.2725 12.948C26.2892 12.9485 26.3081 12.9491 26.3286 12.9517L27.3313 11.8094C26.1297 10.6444 24.7719 10.4064 23.2938 10.9995C21.784 11.6053 21.0311 12.8383 20.8515 14.3947C20.6549 16.098 20.9624 17.6798 22.469 18.7562C24.0625 19.8948 26.3985 19.5971 27.4266 18.1581Z" fill="white" />
</svg>
