<svg width="22" height="22" viewBox="31.666 0.167 22 22" fill="none" xmlns="http://www.w3.org/2000/svg">
<path d="M42.6656 1.6012C45.4557 1.6012 47.7174 3.88086 47.7174 6.69299V11.4244C48.3165 12.3654 48.6647 13.4841 48.6647 14.6852C48.6646 18.0245 45.9788 20.7321 42.6656 20.7321C39.3525 20.732 36.6667 18.0245 36.6666 14.6852C36.6666 11.3458 39.3525 8.6384 42.6656 8.63831C43.7515 8.63831 44.7694 8.93058 45.6481 9.43909V6.69299C45.6481 5.03305 44.3126 3.68713 42.6656 3.68713C41.0188 3.6872 39.6842 5.03309 39.6842 6.69299V7.64807H37.6139V6.69299C37.6139 3.8809 39.8756 1.60126 42.6656 1.6012ZM42.6656 10.7389C40.5034 10.739 38.7506 12.5058 38.7506 14.6852C38.7507 16.8645 40.5034 18.6314 42.6656 18.6315C44.828 18.6315 46.5806 16.8646 46.5807 14.6852C46.5807 12.5057 44.828 10.7389 42.6656 10.7389ZM42.6656 12.9869C43.5957 12.9869 44.3492 13.7468 44.3492 14.6842C44.3492 15.6215 43.5956 16.3815 42.6656 16.3815C41.7357 16.3814 40.9821 15.6215 40.9821 14.6842C40.9821 13.7468 41.7356 12.987 42.6656 12.9869Z" fill="#1B8364"/>
</svg>
