<svg width="66" height="22" viewBox="0 0 66 22" fill="none" xmlns="http://www.w3.org/2000/svg">
<path d="M23.1667 2H15.8333C15.3471 2 14.8808 2.19316 14.537 2.53697C14.1932 2.88079 14 3.34711 14 3.83334V18.5C14 18.9862 14.1932 19.4525 14.537 19.7964C14.8808 20.1402 15.3471 20.3333 15.8333 20.3333H26.8333C27.3196 20.3333 27.7859 20.1402 28.1297 19.7964C28.4735 19.4525 28.6667 18.9862 28.6667 18.5V7.5M23.1667 2C23.4568 1.99953 23.7442 2.05647 24.0123 2.16754C24.2804 2.27861 24.5239 2.44162 24.7287 2.64717L28.0177 5.93617C28.2238 6.14105 28.3872 6.38474 28.4986 6.65315C28.61 6.92157 28.6671 7.20939 28.6667 7.5M23.1667 2V6.58334C23.1667 6.82645 23.2632 7.05961 23.4352 7.23152C23.6071 7.40343 23.8402 7.5 24.0833 7.5L28.6667 7.5M19.5 8.41667H17.6667M25 12.0833H17.6667M25 15.75H17.6667" stroke="#1B8364" stroke-width="1.375" stroke-linecap="round" stroke-linejoin="round"/>
<path d="M42.6656 1.6012C45.4557 1.6012 47.7174 3.88086 47.7174 6.69299V11.4244C48.3165 12.3654 48.6647 13.4841 48.6647 14.6852C48.6646 18.0245 45.9788 20.7321 42.6656 20.7321C39.3525 20.732 36.6667 18.0245 36.6666 14.6852C36.6666 11.3458 39.3525 8.6384 42.6656 8.63831C43.7515 8.63831 44.7694 8.93058 45.6481 9.43909V6.69299C45.6481 5.03305 44.3126 3.68713 42.6656 3.68713C41.0188 3.6872 39.6842 5.03309 39.6842 6.69299V7.64807H37.6139V6.69299C37.6139 3.8809 39.8756 1.60126 42.6656 1.6012ZM42.6656 10.7389C40.5034 10.739 38.7506 12.5058 38.7506 14.6852C38.7507 16.8645 40.5034 18.6314 42.6656 18.6315C44.828 18.6315 46.5806 16.8646 46.5807 14.6852C46.5807 12.5057 44.828 10.7389 42.6656 10.7389ZM42.6656 12.9869C43.5957 12.9869 44.3492 13.7468 44.3492 14.6842C44.3492 15.6215 43.5956 16.3815 42.6656 16.3815C41.7357 16.3814 40.9821 15.6215 40.9821 14.6842C40.9821 13.7468 41.7356 12.987 42.6656 12.9869Z" fill="#1B8364"/>
</svg>
