<svg width="66" height="22" viewBox="0 0 66 22" fill="none" xmlns="http://www.w3.org/2000/svg">
<path d="M23.1667 2H15.8333C15.3471 2 14.8808 2.19316 14.537 2.53697C14.1932 2.88079 14 3.34711 14 3.83334V18.5C14 18.9862 14.1932 19.4525 14.537 19.7964C14.8808 20.1402 15.3471 20.3333 15.8333 20.3333H26.8333C27.3196 20.3333 27.7859 20.1402 28.1297 19.7964C28.4735 19.4525 28.6667 18.9862 28.6667 18.5V7.5M23.1667 2C23.4568 1.99953 23.7442 2.05647 24.0123 2.16754C24.2804 2.27861 24.5239 2.44162 24.7287 2.64717L28.0177 5.93617C28.2238 6.14105 28.3872 6.38474 28.4986 6.65315C28.61 6.92157 28.6671 7.20939 28.6667 7.5M23.1667 2V6.58334C23.1667 6.82645 23.2632 7.05961 23.4352 7.23152C23.6071 7.40343 23.8402 7.5 24.0833 7.5L28.6667 7.5M19.5 8.41667H17.6667M25 12.0833H17.6667M25 15.75H17.6667" stroke="white" stroke-width="1.375" stroke-linecap="round" stroke-linejoin="round"/>
<path d="M42.6656 2.2C45.1 2.2 47.1 4.22 47.1 6.69299V11.4244C48.3165 12.3654 48.6647 13.4841 48.6647 14.6852C48.6646 18.0245 45.9788 20.7321 42.6656 20.7321C39.3525 20.732 36.6667 18.0245 36.6666 14.6852C36.6666 11.3458 39.3525 8.6384 42.6656 8.63831C43.7515 8.63831 44.7694 8.93058 45.6481 9.43909V6.69299C45.6481 5.28 44.62 4.25 42.6656 4.25C40.71 4.25 39.68 5.28 39.68 6.69299V7.64807H38.2V6.69299C38.2 4.22 40.2 2.2 42.6656 2.2ZM42.6656 10.35C40.2 10.35 38.2 12.37 38.2 14.6852C38.2 17 40.2 19.02 42.6656 19.02C45.13 19.02 47.13 17 47.13 14.6852C47.13 12.37 45.13 10.35 42.6656 10.35ZM42.6656 12.65C43.78 12.65 44.68 13.56 44.68 14.6842C44.68 15.8 43.78 16.71 42.6656 16.71C41.55 16.71 40.65 15.8 40.65 14.6842C40.65 13.56 41.55 12.65 42.6656 12.65Z" fill="white"/>
</svg>
