<svg width="66" height="85" viewBox="0 0 66 85" fill="none" xmlns="http://www.w3.org/2000/svg">
<path d="M23.1667 2H15.8333C15.3471 2 14.8808 2.19316 14.537 2.53697C14.1932 2.88079 14 3.34711 14 3.83334V18.5C14 18.9862 14.1932 19.4525 14.537 19.7964C14.8808 20.1402 15.3471 20.3333 15.8333 20.3333H26.8333C27.3196 20.3333 27.7859 20.1402 28.1297 19.7964C28.4735 19.4525 28.6667 18.9862 28.6667 18.5V7.5M23.1667 2C23.4568 1.99953 23.7442 2.05647 24.0123 2.16754C24.2804 2.27861 24.5239 2.44162 24.7287 2.64717L28.0177 5.93617C28.2238 6.14105 28.3872 6.38474 28.4986 6.65315C28.61 6.92157 28.6671 7.20939 28.6667 7.5M23.1667 2V6.58334C23.1667 6.82645 23.2632 7.05961 23.4352 7.23152C23.6071 7.40343 23.8402 7.5 24.0833 7.5L28.6667 7.5M19.5 8.41667H17.6667M25 12.0833H17.6667M25 15.75H17.6667" stroke="#1B8364" stroke-width="1.375" stroke-linecap="round" stroke-linejoin="round"/>
<path d="M42.6656 1.6012C45.4557 1.6012 47.7174 3.88086 47.7174 6.69299V11.4244C48.3165 12.3654 48.6647 13.4841 48.6647 14.6852C48.6646 18.0245 45.9788 20.7321 42.6656 20.7321C39.3525 20.732 36.6667 18.0245 36.6666 14.6852C36.6666 11.3458 39.3525 8.6384 42.6656 8.63831C43.7515 8.63831 44.7694 8.93058 45.6481 9.43909V6.69299C45.6481 5.03305 44.3126 3.68713 42.6656 3.68713C41.0188 3.6872 39.6842 5.03309 39.6842 6.69299V7.64807H37.6139V6.69299C37.6139 3.8809 39.8756 1.60126 42.6656 1.6012ZM42.6656 10.7389C40.5034 10.739 38.7506 12.5058 38.7506 14.6852C38.7507 16.8645 40.5034 18.6314 42.6656 18.6315C44.828 18.6315 46.5806 16.8646 46.5807 14.6852C46.5807 12.5057 44.828 10.7389 42.6656 10.7389ZM42.6656 12.9869C43.5957 12.9869 44.3492 13.7468 44.3492 14.6842C44.3492 15.6215 43.5956 16.3815 42.6656 16.3815C41.7357 16.3814 40.9821 15.6215 40.9821 14.6842C40.9821 13.7468 41.7356 12.987 42.6656 12.9869Z" fill="#1B8364"/>
<path d="M23.1667 32.3334H15.8333C15.3471 32.3334 14.8808 32.5265 14.537 32.8703C14.1932 33.2142 14 33.6805 14 34.1667V48.8334C14 49.3196 14.1932 49.7859 14.537 50.1297C14.8808 50.4736 15.3471 50.6667 15.8333 50.6667H26.8333C27.3196 50.6667 27.7859 50.4736 28.1297 50.1297C28.4735 49.7859 28.6667 49.3196 28.6667 48.8334V37.8334M23.1667 32.3334C23.4568 32.3329 23.7442 32.3898 24.0123 32.5009C24.2804 32.612 24.5239 32.775 24.7287 32.9805L28.0177 36.2695C28.2238 36.4744 28.3872 36.7181 28.4986 36.9865C28.61 37.2549 28.6671 37.5428 28.6667 37.8334M23.1667 32.3334V36.9167C23.1667 37.1598 23.2632 37.393 23.4352 37.5649C23.6071 37.7368 23.8402 37.8334 24.0833 37.8334L28.6667 37.8334M19.5 38.75H17.6667M25 42.4167H17.6667M25 46.0834H17.6667" stroke="#298B6E" stroke-width="1.375" stroke-linecap="round" stroke-linejoin="round"/>
<path d="M42.9988 31.9998C45.7889 31.9998 48.0505 34.2794 48.0505 37.0916V41.823C48.6496 42.7639 48.9978 43.8827 48.9978 45.0837C48.9978 48.4231 46.312 51.1306 42.9988 51.1306C39.6857 51.1305 36.9998 48.423 36.9998 45.0837C36.9998 41.7444 39.6856 39.037 42.9988 39.0369C44.0846 39.0369 45.1026 39.3291 45.9812 39.8376V37.0916C45.9812 35.4316 44.6457 34.0857 42.9988 34.0857C41.3519 34.0858 40.0173 35.4317 40.0173 37.0916V38.0466H37.947V37.0916C37.947 34.2795 40.2088 31.9998 42.9988 31.9998ZM42.9988 41.1375C40.8365 41.1375 39.0837 42.9043 39.0837 45.0837C39.0838 47.2631 40.8365 49.0299 42.9988 49.03C45.1611 49.03 46.9138 47.2632 46.9138 45.0837C46.9138 42.9043 45.1612 41.1375 42.9988 41.1375ZM42.9988 43.3855C43.9288 43.3855 44.6824 44.1454 44.6824 45.0828C44.6823 46.0201 43.9288 46.78 42.9988 46.78C42.0688 46.78 41.3153 46.0201 41.3152 45.0828C41.3152 44.1454 42.0688 43.3855 42.9988 43.3855Z" fill="#298B6E"/>
<path d="M23.1667 62.6666H15.8333C15.3471 62.6666 14.8808 62.8598 14.537 63.2036C14.1932 63.5474 14 64.0137 14 64.5V79.1666C14 79.6529 14.1932 80.1192 14.537 80.463C14.8808 80.8068 15.3471 81 15.8333 81H26.8333C27.3196 81 27.7859 80.8068 28.1297 80.463C28.4735 80.1192 28.6667 79.6529 28.6667 79.1666V68.1666M23.1667 62.6666C23.4568 62.6662 23.7442 62.7231 24.0123 62.8342C24.2804 62.9452 24.5239 63.1082 24.7287 63.3138L28.0177 66.6028C28.2238 66.8077 28.3872 67.0514 28.4986 67.3198C28.61 67.5882 28.6671 67.876 28.6667 68.1666M23.1667 62.6666V67.25C23.1667 67.4931 23.2632 67.7262 23.4352 67.8981C23.6071 68.0701 23.8402 68.1666 24.0833 68.1666L28.6667 68.1666M19.5 69.0833H17.6667M25 72.75H17.6667M25 76.4166H17.6667" stroke="#44403C" stroke-width="1.375" stroke-linecap="round" stroke-linejoin="round"/>
<rect x="38.7236" y="62.8728" width="8.3551" height="14.7393" rx="4.17755" fill="white" stroke="#44403C" stroke-width="1.89965"/>
<circle cx="42.9224" cy="74.3558" r="4.22283" fill="white" stroke="#44403C" stroke-width="0.037993"/>
<circle cx="42.9222" cy="74.527" r="1.65202" fill="#44403C" stroke="#44403C" stroke-width="0.037993"/>
<mask id="path-10-inside-1_4259_2600" fill="white">
<path d="M49.1891 74.5325C49.1891 77.9905 46.3858 80.7937 42.9279 80.7937C39.4699 80.7937 36.6666 77.9905 36.6666 74.5325C36.6666 71.0745 39.4699 68.2712 42.9279 68.2712C46.3858 68.2712 49.1891 71.0745 49.1891 74.5325ZM38.8415 74.5325C38.8415 76.7893 40.671 78.6189 42.9279 78.6189C45.1847 78.6189 47.0143 76.7893 47.0143 74.5325C47.0143 72.2756 45.1847 70.4461 42.9279 70.4461C40.671 70.4461 38.8415 72.2756 38.8415 74.5325Z"/>
</mask>
<path d="M49.1891 74.5325C49.1891 77.9905 46.3858 80.7937 42.9279 80.7937C39.4699 80.7937 36.6666 77.9905 36.6666 74.5325C36.6666 71.0745 39.4699 68.2712 42.9279 68.2712C46.3858 68.2712 49.1891 71.0745 49.1891 74.5325ZM38.8415 74.5325C38.8415 76.7893 40.671 78.6189 42.9279 78.6189C45.1847 78.6189 47.0143 76.7893 47.0143 74.5325C47.0143 72.2756 45.1847 70.4461 42.9279 70.4461C40.671 70.4461 38.8415 72.2756 38.8415 74.5325Z" fill="#44403C" stroke="#44403C" stroke-width="0.0663315" mask="url(#path-10-inside-1_4259_2600)"/>
</svg>
